<?xml version="1.0" standalone="no"?>
<!DOCTYPE svg PUBLIC "-//W3C//DTD SVG 20010904//EN"
 "http://www.w3.org/TR/2001/REC-SVG-20010904/DTD/svg10.dtd">
<svg version="1.0" xmlns="http://www.w3.org/2000/svg"
 width="588.000000pt" height="588.000000pt" viewBox="0 0 588.000000 588.000000"
 preserveAspectRatio="xMidYMid meet">
<metadata>
Created by potrace 1.11, written by Peter Selinger 2001-2013
</metadata>
<g transform="translate(0.000000,588.000000) scale(0.100000,-0.100000)"
fill="#000000" stroke="none">
<path d="M2738 5875 c-1 -1 -37 -5 -78 -9 -41 -3 -84 -8 -95 -10 -11 -2 -42
-7 -70 -10 -27 -4 -84 -14 -125 -23 -41 -8 -82 -16 -90 -18 -227 -46 -623
-202 -809 -319 -22 -14 -44 -26 -47 -26 -4 0 -22 -11 -40 -25 -18 -14 -36 -25
-39 -25 -4 0 -24 -13 -45 -30 -21 -16 -41 -30 -45 -30 -3 0 -12 -6 -19 -12 -8
-7 -24 -20 -36 -28 -32 -21 -152 -119 -220 -179 -19 -17 -39 -31 -43 -31 -5 0
-5 -4 -2 -10 3 -5 2 -10 -3 -10 -9 0 -134 -125 -196 -195 -15 -16 -35 -39 -45
-50 -26 -29 -142 -182 -178 -235 -59 -87 -162 -260 -155 -260 4 0 2 -4 -3 -8
-12 -9 -75 -134 -75 -149 0 -6 -4 -13 -8 -15 -19 -7 -136 -328 -176 -485 -21
-80 -54 -239 -62 -300 -3 -26 -8 -57 -10 -68 -26 -126 -25 -600 0 -745 3 -14
7 -45 10 -70 9 -66 17 -110 31 -170 1 -3 7 -32 14 -65 7 -33 16 -71 21 -85 6
-14 11 -34 13 -45 2 -11 7 -27 10 -35 3 -8 12 -37 20 -65 35 -118 96 -266 176
-425 56 -111 75 -145 84 -148 4 -2 7 -7 7 -12 0 -19 160 -260 173 -260 4 0 7
-7 7 -15 0 -8 4 -15 8 -15 4 0 15 -12 24 -28 9 -15 29 -41 45 -57 15 -17 41
-46 57 -65 87 -106 371 -375 410 -389 6 -2 19 -13 28 -24 10 -11 18 -17 18
-13 0 4 10 -3 23 -14 12 -12 38 -31 57 -43 19 -11 37 -23 40 -26 9 -11 69 -51
75 -51 4 0 25 -13 48 -28 23 -16 59 -36 79 -45 20 -10 40 -21 42 -26 3 -5 18
-12 33 -16 15 -3 30 -10 33 -14 5 -7 157 -81 167 -81 3 0 19 -7 36 -15 36 -16
137 -56 152 -60 6 -1 17 -5 25 -8 16 -6 89 -29 105 -33 6 -2 44 -12 85 -24 41
-11 84 -23 95 -25 11 -2 70 -13 130 -24 200 -38 289 -46 530 -46 176 0 317 7
380 19 11 2 41 6 66 10 56 8 96 15 129 21 14 3 34 7 45 9 11 2 65 16 120 30
55 15 108 28 117 31 9 2 25 8 35 13 10 6 20 10 23 10 8 1 33 8 70 21 19 7 40
14 45 15 31 9 249 104 300 131 138 74 200 110 203 117 2 4 8 8 13 8 18 0 281
185 340 239 9 9 40 36 68 61 61 53 211 199 211 205 0 2 15 20 33 38 46 50 87
97 87 102 0 2 16 21 35 42 19 21 38 46 41 55 3 10 10 18 15 18 5 0 9 6 9 14 0
8 4 16 8 18 9 3 132 185 132 194 0 2 11 22 25 44 67 106 178 350 237 520 48
137 107 378 123 500 4 30 9 66 11 80 19 138 26 525 11 650 -14 124 -40 292
-51 328 -3 9 -7 28 -10 42 -14 81 -87 324 -123 410 -3 8 -7 17 -8 20 -28 80
-145 317 -210 425 -77 128 -215 323 -265 376 -8 8 -38 42 -66 75 -66 76 -161
171 -237 237 -33 29 -78 69 -101 89 -23 21 -45 38 -49 38 -4 0 -17 8 -28 19
-11 10 -45 36 -77 57 -31 21 -59 41 -62 44 -28 29 -429 250 -454 250 -3 0 -29
11 -58 24 -149 68 -469 161 -628 182 -25 3 -47 8 -50 9 -3 2 -33 6 -65 10 -33
4 -71 9 -85 12 -27 5 -496 13 -502 8z"/>
</g>
</svg>
